<mxfile host="Electron" modified="2024-08-22T03:16:15.169Z" agent="Mozilla/5.0 (Windows NT 10.0; Win64; x64) AppleWebKit/537.36 (KHTML, like Gecko) draw.io/24.2.5 Chrome/120.0.6099.109 Electron/28.1.0 Safari/537.36" etag="z9vkwXFTVquwDH9t_Jky" version="24.2.5" type="device">
  <diagram name="CU06" id="swfSd7ZH0-8vuQJsOWal">
    <mxGraphModel dx="880" dy="524" grid="1" gridSize="10" guides="1" tooltips="1" connect="1" arrows="1" fold="1" page="1" pageScale="1" pageWidth="827" pageHeight="1169" math="0" shadow="0">
      <root>
        <mxCell id="0" />
        <mxCell id="1" parent="0" />
        <mxCell id="IO1Sllcx9_gWftxTjrEN-34" value="" style="rounded=0;whiteSpace=wrap;html=1;fillColor=none;strokeWidth=2;" vertex="1" parent="1">
          <mxGeometry x="10" y="10" width="640" height="290" as="geometry" />
        </mxCell>
        <mxCell id="IO1Sllcx9_gWftxTjrEN-35" value="" style="rounded=0;whiteSpace=wrap;html=1;fillColor=none;strokeWidth=2;" vertex="1" parent="1">
          <mxGeometry x="10" y="300" width="640" height="200" as="geometry" />
        </mxCell>
        <mxCell id="IO1Sllcx9_gWftxTjrEN-5" value="" style="edgeStyle=orthogonalEdgeStyle;rounded=0;orthogonalLoop=1;jettySize=auto;html=1;" edge="1" parent="1" source="IO1Sllcx9_gWftxTjrEN-1" target="IO1Sllcx9_gWftxTjrEN-2">
          <mxGeometry relative="1" as="geometry" />
        </mxCell>
        <mxCell id="IO1Sllcx9_gWftxTjrEN-1" value="Solicitud de crédito" style="rounded=0;whiteSpace=wrap;html=1;" vertex="1" parent="1">
          <mxGeometry x="40" y="240" width="80" height="40" as="geometry" />
        </mxCell>
        <mxCell id="IO1Sllcx9_gWftxTjrEN-6" value="" style="edgeStyle=orthogonalEdgeStyle;rounded=0;orthogonalLoop=1;jettySize=auto;html=1;" edge="1" parent="1" source="IO1Sllcx9_gWftxTjrEN-2" target="IO1Sllcx9_gWftxTjrEN-4">
          <mxGeometry relative="1" as="geometry">
            <Array as="points">
              <mxPoint x="200" y="220" />
              <mxPoint x="200" y="220" />
            </Array>
          </mxGeometry>
        </mxCell>
        <mxCell id="IO1Sllcx9_gWftxTjrEN-7" value="Cliente no registrado" style="edgeLabel;html=1;align=center;verticalAlign=middle;resizable=0;points=[];" vertex="1" connectable="0" parent="IO1Sllcx9_gWftxTjrEN-6">
          <mxGeometry x="0.25" relative="1" as="geometry">
            <mxPoint as="offset" />
          </mxGeometry>
        </mxCell>
        <mxCell id="IO1Sllcx9_gWftxTjrEN-12" style="edgeStyle=orthogonalEdgeStyle;rounded=0;orthogonalLoop=1;jettySize=auto;html=1;entryX=0;entryY=0.5;entryDx=0;entryDy=0;" edge="1" parent="1" source="IO1Sllcx9_gWftxTjrEN-2" target="IO1Sllcx9_gWftxTjrEN-10">
          <mxGeometry relative="1" as="geometry" />
        </mxCell>
        <mxCell id="IO1Sllcx9_gWftxTjrEN-21" value="" style="edgeStyle=orthogonalEdgeStyle;rounded=0;orthogonalLoop=1;jettySize=auto;html=1;" edge="1" parent="1" source="IO1Sllcx9_gWftxTjrEN-2" target="IO1Sllcx9_gWftxTjrEN-10">
          <mxGeometry relative="1" as="geometry" />
        </mxCell>
        <mxCell id="IO1Sllcx9_gWftxTjrEN-2" value="Búsqueda del cliente" style="rounded=0;whiteSpace=wrap;html=1;" vertex="1" parent="1">
          <mxGeometry x="160" y="240" width="80" height="40" as="geometry" />
        </mxCell>
        <mxCell id="IO1Sllcx9_gWftxTjrEN-11" style="edgeStyle=orthogonalEdgeStyle;rounded=0;orthogonalLoop=1;jettySize=auto;html=1;" edge="1" parent="1" source="IO1Sllcx9_gWftxTjrEN-4" target="IO1Sllcx9_gWftxTjrEN-10">
          <mxGeometry relative="1" as="geometry" />
        </mxCell>
        <mxCell id="IO1Sllcx9_gWftxTjrEN-4" value="Registrar cliente" style="rounded=0;whiteSpace=wrap;html=1;" vertex="1" parent="1">
          <mxGeometry x="160" y="160" width="80" height="40" as="geometry" />
        </mxCell>
        <mxCell id="IO1Sllcx9_gWftxTjrEN-9" style="edgeStyle=orthogonalEdgeStyle;rounded=0;orthogonalLoop=1;jettySize=auto;html=1;entryX=0;entryY=0.5;entryDx=0;entryDy=0;" edge="1" parent="1" source="IO1Sllcx9_gWftxTjrEN-8" target="IO1Sllcx9_gWftxTjrEN-4">
          <mxGeometry relative="1" as="geometry" />
        </mxCell>
        <mxCell id="IO1Sllcx9_gWftxTjrEN-8" value="Nombre&lt;div&gt;Dirección&lt;/div&gt;&lt;div&gt;Contacto&lt;/div&gt;&lt;div&gt;RFC&lt;/div&gt;&lt;div&gt;Cuentas bancarias&lt;/div&gt;&lt;div&gt;Refrerencias del cliente&lt;/div&gt;&lt;div&gt;Trabajo del cliente&lt;/div&gt;" style="rounded=0;whiteSpace=wrap;html=1;" vertex="1" parent="1">
          <mxGeometry x="20" y="20" width="150" height="100" as="geometry" />
        </mxCell>
        <mxCell id="IO1Sllcx9_gWftxTjrEN-14" value="" style="edgeStyle=orthogonalEdgeStyle;rounded=0;orthogonalLoop=1;jettySize=auto;html=1;" edge="1" parent="1" source="IO1Sllcx9_gWftxTjrEN-10" target="IO1Sllcx9_gWftxTjrEN-13">
          <mxGeometry relative="1" as="geometry" />
        </mxCell>
        <mxCell id="IO1Sllcx9_gWftxTjrEN-10" value="Subida de documentos" style="rounded=0;whiteSpace=wrap;html=1;" vertex="1" parent="1">
          <mxGeometry x="280" y="240" width="80" height="40" as="geometry" />
        </mxCell>
        <mxCell id="IO1Sllcx9_gWftxTjrEN-16" value="" style="edgeStyle=orthogonalEdgeStyle;rounded=0;orthogonalLoop=1;jettySize=auto;html=1;" edge="1" parent="1" source="IO1Sllcx9_gWftxTjrEN-13" target="IO1Sllcx9_gWftxTjrEN-15">
          <mxGeometry relative="1" as="geometry" />
        </mxCell>
        <mxCell id="IO1Sllcx9_gWftxTjrEN-17" value="incumplimiento de&amp;nbsp;&lt;div&gt;politicas o no autorización&lt;/div&gt;" style="edgeLabel;html=1;align=center;verticalAlign=middle;resizable=0;points=[];" vertex="1" connectable="0" parent="IO1Sllcx9_gWftxTjrEN-16">
          <mxGeometry x="-0.1" relative="1" as="geometry">
            <mxPoint as="offset" />
          </mxGeometry>
        </mxCell>
        <mxCell id="IO1Sllcx9_gWftxTjrEN-20" style="edgeStyle=orthogonalEdgeStyle;rounded=0;orthogonalLoop=1;jettySize=auto;html=1;entryX=0.5;entryY=0;entryDx=0;entryDy=0;" edge="1" parent="1" source="IO1Sllcx9_gWftxTjrEN-13" target="IO1Sllcx9_gWftxTjrEN-19">
          <mxGeometry relative="1" as="geometry">
            <Array as="points">
              <mxPoint x="440" y="290" />
              <mxPoint x="80" y="290" />
            </Array>
          </mxGeometry>
        </mxCell>
        <mxCell id="IO1Sllcx9_gWftxTjrEN-13" value="Análisis y autorización" style="rounded=0;whiteSpace=wrap;html=1;" vertex="1" parent="1">
          <mxGeometry x="400" y="240" width="80" height="40" as="geometry" />
        </mxCell>
        <mxCell id="IO1Sllcx9_gWftxTjrEN-15" value="Rechazo" style="rounded=0;whiteSpace=wrap;html=1;" vertex="1" parent="1">
          <mxGeometry x="400" y="160" width="80" height="40" as="geometry" />
        </mxCell>
        <mxCell id="IO1Sllcx9_gWftxTjrEN-24" value="" style="edgeStyle=orthogonalEdgeStyle;rounded=0;orthogonalLoop=1;jettySize=auto;html=1;" edge="1" parent="1" source="IO1Sllcx9_gWftxTjrEN-19" target="IO1Sllcx9_gWftxTjrEN-23">
          <mxGeometry relative="1" as="geometry" />
        </mxCell>
        <mxCell id="IO1Sllcx9_gWftxTjrEN-19" value="Checklist de políticas" style="rounded=0;whiteSpace=wrap;html=1;" vertex="1" parent="1">
          <mxGeometry x="40" y="440" width="80" height="40" as="geometry" />
        </mxCell>
        <mxCell id="IO1Sllcx9_gWftxTjrEN-28" value="" style="edgeStyle=orthogonalEdgeStyle;rounded=0;orthogonalLoop=1;jettySize=auto;html=1;" edge="1" parent="1" source="IO1Sllcx9_gWftxTjrEN-23" target="IO1Sllcx9_gWftxTjrEN-27">
          <mxGeometry relative="1" as="geometry" />
        </mxCell>
        <mxCell id="IO1Sllcx9_gWftxTjrEN-23" value="Creación del dictamen" style="rounded=0;whiteSpace=wrap;html=1;" vertex="1" parent="1">
          <mxGeometry x="160" y="440" width="80" height="40" as="geometry" />
        </mxCell>
        <mxCell id="IO1Sllcx9_gWftxTjrEN-31" value="" style="edgeStyle=orthogonalEdgeStyle;rounded=0;orthogonalLoop=1;jettySize=auto;html=1;" edge="1" parent="1" source="IO1Sllcx9_gWftxTjrEN-25" target="IO1Sllcx9_gWftxTjrEN-23">
          <mxGeometry relative="1" as="geometry" />
        </mxCell>
        <mxCell id="IO1Sllcx9_gWftxTjrEN-25" value="Estatus&lt;div&gt;Observaciones&lt;/div&gt;&lt;div&gt;Fecha y hora&lt;/div&gt;&lt;div&gt;Analista&lt;/div&gt;" style="rounded=0;whiteSpace=wrap;html=1;" vertex="1" parent="1">
          <mxGeometry x="142.5" y="320" width="115" height="80" as="geometry" />
        </mxCell>
        <mxCell id="IO1Sllcx9_gWftxTjrEN-30" value="" style="edgeStyle=orthogonalEdgeStyle;rounded=0;orthogonalLoop=1;jettySize=auto;html=1;" edge="1" parent="1" source="IO1Sllcx9_gWftxTjrEN-27" target="IO1Sllcx9_gWftxTjrEN-29">
          <mxGeometry relative="1" as="geometry" />
        </mxCell>
        <mxCell id="IO1Sllcx9_gWftxTjrEN-27" value="Envío al área de cobranza" style="rounded=0;whiteSpace=wrap;html=1;" vertex="1" parent="1">
          <mxGeometry x="280" y="440" width="80" height="40" as="geometry" />
        </mxCell>
        <mxCell id="IO1Sllcx9_gWftxTjrEN-38" style="edgeStyle=orthogonalEdgeStyle;rounded=0;orthogonalLoop=1;jettySize=auto;html=1;entryX=0.5;entryY=0;entryDx=0;entryDy=0;" edge="1" parent="1" source="IO1Sllcx9_gWftxTjrEN-29" target="IO1Sllcx9_gWftxTjrEN-37">
          <mxGeometry relative="1" as="geometry">
            <Array as="points">
              <mxPoint x="440" y="490" />
              <mxPoint x="80" y="490" />
            </Array>
          </mxGeometry>
        </mxCell>
        <mxCell id="IO1Sllcx9_gWftxTjrEN-29" value="Tabla de pagos" style="rounded=0;whiteSpace=wrap;html=1;" vertex="1" parent="1">
          <mxGeometry x="400" y="440" width="80" height="40" as="geometry" />
        </mxCell>
        <mxCell id="IO1Sllcx9_gWftxTjrEN-33" value="" style="edgeStyle=orthogonalEdgeStyle;rounded=0;orthogonalLoop=1;jettySize=auto;html=1;" edge="1" parent="1" source="IO1Sllcx9_gWftxTjrEN-32" target="IO1Sllcx9_gWftxTjrEN-29">
          <mxGeometry relative="1" as="geometry" />
        </mxCell>
        <mxCell id="IO1Sllcx9_gWftxTjrEN-32" value="Fecha&lt;div&gt;Importe&lt;/div&gt;&lt;div&gt;Número de pago&lt;/div&gt;&lt;div&gt;Saldo pendiente&lt;/div&gt;&lt;div&gt;&lt;br&gt;&lt;/div&gt;" style="rounded=0;whiteSpace=wrap;html=1;" vertex="1" parent="1">
          <mxGeometry x="382.5" y="320" width="115" height="80" as="geometry" />
        </mxCell>
        <mxCell id="IO1Sllcx9_gWftxTjrEN-36" value="" style="rounded=0;whiteSpace=wrap;html=1;fillColor=none;strokeWidth=2;" vertex="1" parent="1">
          <mxGeometry x="10" y="500" width="640" height="210" as="geometry" />
        </mxCell>
        <mxCell id="IO1Sllcx9_gWftxTjrEN-37" value="Cobro automatico" style="rounded=0;whiteSpace=wrap;html=1;" vertex="1" parent="1">
          <mxGeometry x="40" y="560" width="80" height="40" as="geometry" />
        </mxCell>
      </root>
    </mxGraphModel>
  </diagram>
</mxfile>
